# xmcd
#
# Track frame offsets:
#	150
#	29935
#	44914
#	76386
#	97904
#	137804
#	152065
#	174131
#	190847
#
# Disc length: 2982 seconds
#
# Revision: 0
# Processed by: cddbd v1.4PL0 Copyright (c) Steve Scherf et al.
# Submitted via: dBpowerAMP V4.0
#
DISCID=750ba409
DTITLE=Miss Blues Sittin' in With Blinddog Smokin' - Miss Blues Sittin' in With Blinddog Smokin'
DYEAR=2001
DGENRE=Blues
TTITLE0=Goin' Down Slow
TTITLE1=Black Rat
TTITLE2=Sinkin', Sinkin', Sinkin'
TTITLE3=Comfortable Man
TTITLE4=More Jelly
TTITLE5=Sell My Monkey
TTITLE6=Trapped
TTITLE7=Leave Me Alone
TTITLE8=Cold Mountains
EXTD=
EXTT0=
EXTT1=
EXTT2=
EXTT3=
EXTT4=
EXTT5=
EXTT6=
EXTT7=
EXTT8=
PLAYORDER=
